<svg xmlns="http://www.w3.org/2000/svg" viewBox="0 0 128 128">
<rect width="128" height="128" fill="#050607"/>
<line x1="64.0" y1="12.0" x2="64.0" y2="6.0" stroke="#2E3A42" stroke-width="1.6"/><line x1="73.0" y1="12.8" x2="74.1" y2="6.9" stroke="#2E3A42" stroke-width="1.6"/><line x1="81.8" y1="15.1" x2="83.8" y2="9.5" stroke="#2E3A42" stroke-width="1.6"/><line x1="90.0" y1="19.0" x2="93.0" y2="13.8" stroke="#2E3A42" stroke-width="1.6"/><line x1="97.4" y1="24.2" x2="101.3" y2="19.6" stroke="#2E3A42" stroke-width="1.6"/><line x1="103.8" y1="30.6" x2="108.4" y2="26.7" stroke="#2E3A42" stroke-width="1.6"/><line x1="109.0" y1="38.0" x2="114.2" y2="35.0" stroke="#2E3A42" stroke-width="1.6"/><line x1="112.9" y1="46.2" x2="118.5" y2="44.2" stroke="#2E3A42" stroke-width="1.6"/><line x1="115.2" y1="55.0" x2="121.1" y2="53.9" stroke="#2E3A42" stroke-width="1.6"/><line x1="116.0" y1="64.0" x2="122.0" y2="64.0" stroke="#2E3A42" stroke-width="1.6"/><line x1="115.2" y1="73.0" x2="121.1" y2="74.1" stroke="#2E3A42" stroke-width="1.6"/><line x1="112.9" y1="81.8" x2="118.5" y2="83.8" stroke="#2E3A42" stroke-width="1.6"/><line x1="109.0" y1="90.0" x2="114.2" y2="93.0" stroke="#2E3A42" stroke-width="1.6"/><line x1="103.8" y1="97.4" x2="108.4" y2="101.3" stroke="#2E3A42" stroke-width="1.6"/><line x1="97.4" y1="103.8" x2="101.3" y2="108.4" stroke="#2E3A42" stroke-width="1.6"/><line x1="90.0" y1="109.0" x2="93.0" y2="114.2" stroke="#2E3A42" stroke-width="1.6"/><line x1="81.8" y1="112.9" x2="83.8" y2="118.5" stroke="#2E3A42" stroke-width="1.6"/><line x1="73.0" y1="115.2" x2="74.1" y2="121.1" stroke="#2E3A42" stroke-width="1.6"/><line x1="64.0" y1="116.0" x2="64.0" y2="122.0" stroke="#2E3A42" stroke-width="1.6"/><line x1="55.0" y1="115.2" x2="53.9" y2="121.1" stroke="#2E3A42" stroke-width="1.6"/><line x1="46.2" y1="112.9" x2="44.2" y2="118.5" stroke="#2E3A42" stroke-width="1.6"/><line x1="38.0" y1="109.0" x2="35.0" y2="114.2" stroke="#2E3A42" stroke-width="1.6"/><line x1="30.6" y1="103.8" x2="26.7" y2="108.4" stroke="#2E3A42" stroke-width="1.6"/><line x1="24.2" y1="97.4" x2="19.6" y2="101.3" stroke="#2E3A42" stroke-width="1.6"/><line x1="19.0" y1="90.0" x2="13.8" y2="93.0" stroke="#2E3A42" stroke-width="1.6"/><line x1="15.1" y1="81.8" x2="9.5" y2="83.8" stroke="#2E3A42" stroke-width="1.6"/><line x1="12.8" y1="73.0" x2="6.9" y2="74.1" stroke="#2E3A42" stroke-width="1.6"/><line x1="12.0" y1="64.0" x2="6.0" y2="64.0" stroke="#2E3A42" stroke-width="1.6"/><line x1="12.8" y1="55.0" x2="6.9" y2="53.9" stroke="#2E3A42" stroke-width="1.6"/><line x1="15.1" y1="46.2" x2="9.5" y2="44.2" stroke="#2E3A42" stroke-width="1.6"/><line x1="19.0" y1="38.0" x2="13.8" y2="35.0" stroke="#2E3A42" stroke-width="1.6"/><line x1="24.2" y1="30.6" x2="19.6" y2="26.7" stroke="#2E3A42" stroke-width="1.6"/><line x1="30.6" y1="24.2" x2="26.7" y2="19.6" stroke="#2E3A42" stroke-width="1.6"/><line x1="38.0" y1="19.0" x2="35.0" y2="13.8" stroke="#2E3A42" stroke-width="1.6"/><line x1="46.2" y1="15.1" x2="44.2" y2="9.5" stroke="#2E3A42" stroke-width="1.6"/><line x1="55.0" y1="12.8" x2="53.9" y2="6.9" stroke="#2E3A42" stroke-width="1.6"/>
<line x1="64.0" y1="15.0" x2="64.0" y2="6.0" stroke="#F4F6F6" stroke-width="2"/><line x1="88.5" y1="21.6" x2="93.0" y2="13.8" stroke="#F4F6F6" stroke-width="2"/><line x1="106.4" y1="39.5" x2="114.2" y2="35.0" stroke="#F4F6F6" stroke-width="2"/><line x1="113.0" y1="64.0" x2="122.0" y2="64.0" stroke="#F4F6F6" stroke-width="2"/><line x1="106.4" y1="88.5" x2="114.2" y2="93.0" stroke="#F4F6F6" stroke-width="2"/><line x1="88.5" y1="106.4" x2="93.0" y2="114.2" stroke="#F4F6F6" stroke-width="2"/><line x1="64.0" y1="113.0" x2="64.0" y2="122.0" stroke="#F4F6F6" stroke-width="2"/><line x1="39.5" y1="106.4" x2="35.0" y2="114.2" stroke="#F4F6F6" stroke-width="2"/><line x1="21.6" y1="88.5" x2="13.8" y2="93.0" stroke="#F4F6F6" stroke-width="2"/><line x1="15.0" y1="64.0" x2="6.0" y2="64.0" stroke="#F4F6F6" stroke-width="2"/><line x1="21.6" y1="39.5" x2="13.8" y2="35.0" stroke="#F4F6F6" stroke-width="2"/><line x1="39.5" y1="21.6" x2="35.0" y2="13.8" stroke="#F4F6F6" stroke-width="2"/>
<path d="M 64 6 A 58 58 0 0 1 114 35" fill="none" stroke="#FF5C1F" stroke-width="4"/>
<text x="64" y="86" font-family="Georgia, 'Times New Roman', serif" font-size="64" fill="#F4F6F6" text-anchor="middle">N</text>
</svg>